<?xml version="1.0" encoding="UTF-8"?>
<svg width="26px" height="27px" viewBox="0 0 26 27" version="1.1" xmlns="http://www.w3.org/2000/svg" xmlns:xlink="http://www.w3.org/1999/xlink">
    <!-- Generator: Sketch 49.1 (51147) - http://www.bohemiancoding.com/sketch -->
    <title>Shape</title>
    <desc>Created with Sketch.</desc>
    <defs></defs>
    <g id="Page-1" stroke="none" stroke-width="1" fill="none" fill-rule="evenodd" opacity="0.602468297">
        <g id="giphy_grid_1-copy-27" transform="translate(-909.000000, -171.000000)" fill="#FFFFFF" fill-rule="nonzero">
            <g id="Group-3" transform="translate(907.000000, 156.000000)">
                <path d="M17.3573502,29.8523857 C18.691883,28.3158762 19.5025776,26.3125281 19.5025776,24.1223826 C19.5025776,19.2969374 15.576734,15.3710938 10.7512888,15.3710938 C5.92584365,15.3710938 2,19.2969374 2,24.1223826 C2,28.9478277 5.92584365,32.8736714 10.7512888,32.8736714 C12.9414344,32.8736714 14.9447825,32.0629767 16.481292,30.7284439 L26.9639419,41.2110939 L27.8400002,40.3350357 L17.3573502,29.8523857 Z M10.7512888,31.6345508 C6.60890884,31.6345508 3.23912054,28.2647625 3.23912054,24.1223826 C3.23912054,19.9800026 6.60890884,16.6102143 10.7512888,16.6102143 C14.8936688,16.6102143 18.2634571,19.9800026 18.2634571,24.1223826 C18.2634571,28.2647625 14.8936688,31.6345508 10.7512888,31.6345508 Z" id="Shape"></path>
            </g>
        </g>
    </g>
</svg>